# xmcd
# 
# Track frame offsets:
#     150
#     22567
#     36012
#     51880
#     71561
#     88131
# 
# Disc length: 1394
# 
# Revision: 0
# Processed by: cddbd v1.5.2PL0 Copyright (c) Steve Scherf et al.
# Submitted via: BonkEnc v1.0.8
# 
DISCID=41057006
DTITLE=Kina Grannis - Sincerely, Me
DYEAR=2005
DGENRE=Acoustic
TTITLE0=Blindly
TTITLE1=Highlighted in Green
TTITLE2=Next Time
TTITLE3=Try
TTITLE4=Another Day
TTITLE5=People
EXTD=
EXTT0=
EXTT1=
EXTT2=
EXTT3=
EXTT4=
EXTT5=
PLAYORDER=
